<svg xmlns="http://www.w3.org/2000/svg" width="41" height="41" viewBox="0 0 41 41" shape-rendering="crispEdges" opacity="0.5"><path fill="#b29a6e" d="M19 3h1v1h-1zM19 4h1v1h-1zM19 5h1v1h-1zM19 6h1v1h-1zM17 7h3v1h-3zM22 7h2v1h-2zM14 8h3v1h-3zM18 8h2v1h-2zM24 8h3v1h-3zM13 9h1v1h-1zM18 9h2v1h-2zM27 9h1v1h-1zM12 10h1v1h-1zM18 10h2v1h-2zM28 10h1v1h-1zM11 11h1v1h-1zM18 11h2v1h-2zM29 11h1v1h-1zM10 12h1v1h-1zM18 12h2v1h-2zM30 12h1v1h-1zM9 13h1v1h-1zM17 13h3v1h-3zM25 13h1v1h-1zM31 13h1v1h-1zM8 14h1v1h-1zM13 14h1v1h-1zM17 14h3v1h-3zM24 14h1v1h-1zM32 14h1v1h-1zM8 15h1v1h-1zM14 15h1v1h-1zM17 15h3v1h-3zM32 15h1v1h-1zM8 16h1v1h-1zM14 16h2v1h-2zM17 16h3v1h-3zM32 16h1v1h-1zM7 17h1v1h-1zM21 17h5v1h-5zM33 17h1v1h-1zM7 18h1v1h-1zM21 18h10v1h-10zM33 18h1v1h-1zM19 19h17v1h-17zM19 20h6v1h-6zM5 21h20v1h-20zM7 22h1v1h-1zM10 22h15v1h-15zM33 22h1v1h-1zM7 23h1v1h-1zM15 23h9v1h-9zM33 23h1v1h-1zM8 24h1v1h-1zM16 24h1v1h-1zM20 24h4v1h-4zM25 24h1v1h-1zM32 24h1v1h-1zM8 25h1v1h-1zM15 25h2v1h-2zM21 25h3v1h-3zM26 25h1v1h-1zM32 25h1v1h-1zM8 26h1v1h-1zM14 26h1v1h-1zM21 26h3v1h-3zM32 26h1v1h-1zM9 27h1v1h-1zM21 27h3v1h-3zM31 27h1v1h-1zM10 28h1v1h-1zM21 28h2v1h-2zM30 28h1v1h-1zM11 29h1v1h-1zM21 29h2v1h-2zM29 29h1v1h-1zM12 30h1v1h-1zM21 30h2v1h-2zM28 30h1v1h-1zM13 31h1v1h-1zM21 31h2v1h-2zM27 31h1v1h-1zM14 32h3v1h-3zM21 32h2v1h-2zM24 32h3v1h-3zM17 33h2v1h-2zM21 33h3v1h-3zM21 34h1v1h-1zM21 35h1v1h-1zM21 36h1v1h-1zM21 37h1v1h-1z"/><path fill="#8c7550" d="M20 0h1v1h-1zM20 1h1v1h-1zM20 2h1v1h-1zM16 3h3v1h-3zM20 3h5v1h-5zM14 4h2v1h-2zM20 4h2v1h-2zM25 4h2v1h-2zM12 5h2v1h-2zM20 5h2v1h-2zM27 5h2v1h-2zM10 6h2v1h-2zM20 6h2v1h-2zM29 6h2v1h-2zM9 7h1v1h-1zM20 7h2v1h-2zM31 7h1v1h-1zM8 8h1v1h-1zM20 8h3v1h-3zM32 8h1v1h-1zM7 9h1v1h-1zM20 9h3v1h-3zM33 9h1v1h-1zM6 10h1v1h-1zM20 10h3v1h-3zM34 10h1v1h-1zM6 11h1v1h-1zM20 11h3v1h-3zM34 11h1v1h-1zM5 12h1v1h-1zM12 12h1v1h-1zM20 12h3v1h-3zM27 12h1v1h-1zM35 12h1v1h-1zM5 13h1v1h-1zM13 13h2v1h-2zM20 13h4v1h-4zM26 13h1v1h-1zM35 13h1v1h-1zM4 14h1v1h-1zM14 14h3v1h-3zM20 14h4v1h-4zM25 14h2v1h-2zM36 14h1v1h-1zM4 15h1v1h-1zM15 15h2v1h-2zM20 15h6v1h-6zM36 15h1v1h-1zM3 16h1v1h-1zM16 16h1v1h-1zM20 16h6v1h-6zM37 16h1v1h-1zM3 17h1v1h-1zM15 17h6v1h-6zM37 17h1v1h-1zM3 18h1v1h-1zM10 18h11v1h-11zM37 18h1v1h-1zM3 19h1v1h-1zM5 19h14v1h-14zM37 19h1v1h-1zM0 20h19v1h-19zM25 20h16v1h-16zM3 21h1v1h-1zM25 21h11v1h-11zM37 21h1v1h-1zM3 22h1v1h-1zM25 22h6v1h-6zM37 22h1v1h-1zM3 23h1v1h-1zM14 23h1v1h-1zM24 23h2v1h-2zM37 23h1v1h-1zM3 24h1v1h-1zM14 24h2v1h-2zM17 24h3v1h-3zM24 24h1v1h-1zM37 24h1v1h-1zM4 25h1v1h-1zM13 25h2v1h-2zM17 25h4v1h-4zM24 25h2v1h-2zM36 25h1v1h-1zM4 26h1v1h-1zM13 26h1v1h-1zM17 26h4v1h-4zM25 26h2v1h-2zM36 26h1v1h-1zM5 27h1v1h-1zM12 27h1v1h-1zM17 27h4v1h-4zM27 27h1v1h-1zM35 27h1v1h-1zM5 28h1v1h-1zM18 28h3v1h-3zM35 28h1v1h-1zM6 29h1v1h-1zM18 29h3v1h-3zM34 29h1v1h-1zM6 30h1v1h-1zM18 30h3v1h-3zM34 30h1v1h-1zM7 31h1v1h-1zM18 31h3v1h-3zM33 31h1v1h-1zM8 32h1v1h-1zM18 32h3v1h-3zM32 32h1v1h-1zM9 33h1v1h-1zM19 33h2v1h-2zM31 33h1v1h-1zM10 34h2v1h-2zM19 34h2v1h-2zM29 34h2v1h-2zM12 35h2v1h-2zM19 35h2v1h-2zM27 35h2v1h-2zM14 36h2v1h-2zM19 36h2v1h-2zM25 36h2v1h-2zM16 37h5v1h-5zM22 37h3v1h-3zM20 38h1v1h-1zM20 39h1v1h-1zM20 40h1v1h-1z"/></svg>
